<?xml version="1.0" encoding="UTF-8" standalone="no"?>
<!-- Created with Inkscape (http://www.inkscape.org/) -->

<svg
   width="133.58499mm"
   height="60.709824mm"
   viewBox="0 0 133.58499 60.709824"
   version="1.1"
   id="svg5"
   xml:space="preserve"
   inkscape:version="1.2.2 (b0a8486541, 2022-12-01)"
   sodipodi:docname="spwig_logo.svg"
   xmlns:inkscape="http://www.inkscape.org/namespaces/inkscape"
   xmlns:sodipodi="http://sodipodi.sourceforge.net/DTD/sodipodi-0.dtd"
   xmlns:xlink="http://www.w3.org/1999/xlink"
   xmlns="http://www.w3.org/2000/svg"
   xmlns:svg="http://www.w3.org/2000/svg"><sodipodi:namedview
     id="namedview7"
     pagecolor="#ffffff"
     bordercolor="#000000"
     borderopacity="0.25"
     inkscape:showpageshadow="2"
     inkscape:pageopacity="0.0"
     inkscape:pagecheckerboard="0"
     inkscape:deskcolor="#d1d1d1"
     inkscape:document-units="mm"
     showgrid="false"
     inkscape:zoom="1.4140025"
     inkscape:cx="489.39092"
     inkscape:cy="597.94801"
     inkscape:window-width="2494"
     inkscape:window-height="1011"
     inkscape:window-x="66"
     inkscape:window-y="32"
     inkscape:window-maximized="1"
     inkscape:current-layer="layer1" /><defs
     id="defs2"><linearGradient
       inkscape:collect="always"
       id="linearGradient13220"><stop
         style="stop-color:#1178f4;stop-opacity:1;"
         offset="0"
         id="stop13216" /><stop
         style="stop-color:#f411c7;stop-opacity:0.83629912;"
         offset="1"
         id="stop13218" /></linearGradient><rect
       x="118.38854"
       y="578.14966"
       width="809.08893"
       height="587.75122"
       id="rect562" /><linearGradient
       inkscape:collect="always"
       xlink:href="#linearGradient13220"
       id="linearGradient13222"
       x1="131.74799"
       y1="411.75864"
       x2="334.90201"
       y2="506.16537"
       gradientUnits="userSpaceOnUse"
       gradientTransform="matrix(0.08934721,0,0,0.08934721,110.43365,115.36274)" /></defs><g
     inkscape:label="Layer 1"
     inkscape:groupmode="layer"
     id="layer1"
     transform="translate(-33.660466,-150.67277)"><g
       aria-label="Spwig"
       transform="scale(0.26458333)"
       id="text560"
       style="font-size:192px;letter-spacing:-9.81px;word-spacing:-0.03px;white-space:pre;shape-inside:url(#rect562);fill:#1178f4"><path
         d="m 216.50067,714.83043 q 0,18.24 -13.248,29.184 -13.056,10.752 -37.248,10.752 -21.696,0 -38.784,-8.256 v -27.072 q 9.792,4.224 20.16,7.872 10.56,3.456 20.928,3.456 10.752,0 15.168,-4.032 4.608,-4.224 4.608,-10.56 0,-5.184 -3.648,-8.832 -3.456,-3.648 -9.408,-6.72 -5.952,-3.264 -13.632,-6.912 -4.8,-2.304 -10.368,-5.376 -5.568,-3.264 -10.752,-7.872 -4.992,-4.8 -8.256,-11.52 -3.264,-6.72 -3.264,-16.128 0,-18.432 12.48,-28.608 12.48,-10.368 33.984,-10.368 10.752,0 20.352,2.496 9.792,2.496 20.352,7.104 l -9.408,22.656 q -9.408,-3.84 -16.896,-5.952 -7.488,-2.112 -15.36,-2.112 -8.256,0 -12.672,3.84 -4.416,3.84 -4.416,9.984 0,7.296 6.528,11.52 6.528,4.224 19.392,10.368 10.56,4.992 17.856,10.368 7.488,5.376 11.52,12.672 4.032,7.296 4.032,18.048 z"
         style="font-weight:bold;-inkscape-font-specification:'sans-serif Bold'"
         id="path12278" /><path
         d="m 287.71479,646.09443 q 17.664,0 28.608,13.824 10.944,13.632 10.944,40.32 0,26.688 -11.328,40.704 -11.328,13.824 -28.992,13.824 -11.328,0 -18.048,-4.032 -6.72,-4.224 -10.944,-9.408 h -1.536 q 1.536,8.064 1.536,15.36 v 42.24 h -28.608 v -150.912 h 23.232 l 4.032,13.632 h 1.344 q 4.224,-6.336 11.328,-10.944 7.104,-4.608 18.432,-4.608 z m -9.216,22.848 q -11.136,0 -15.744,6.912 -4.416,6.912 -4.8,21.12 v 3.072 q 0,15.168 4.416,23.424 4.608,8.064 16.512,8.064 9.792,0 14.4,-8.064 4.8,-8.256 4.8,-23.616 0,-30.912 -19.584,-30.912 z"
         style="font-weight:bold;-inkscape-font-specification:'sans-serif Bold'"
         id="path12280" /><path
         d="m 415.37659,716.17443 q -0.768,-3.264 -2.304,-9.6 -1.344,-6.528 -3.072,-13.824 -1.728,-7.488 -3.264,-13.632 -1.536,-6.336 -2.112,-9.216 h -0.768 q -0.576,2.88 -2.112,9.216 -1.344,6.144 -3.072,13.632 -1.728,7.296 -3.264,13.824 -1.536,6.528 -2.304,9.984 l -8.448,36.288 h -30.72 l -29.76,-104.832 h 28.416 l 12.096,46.464 q 1.344,4.8 2.304,11.52 1.152,6.72 2.112,13.056 0.96,6.144 1.344,9.792 h 0.768 q 0.192,-2.688 0.768,-7.104 0.576,-4.608 1.344,-9.408 0.96,-4.8 1.536,-8.64 0.768,-4.032 1.152,-5.376 l 12.864,-50.304 h 31.488 l 12.288,50.304 q 0.768,2.688 1.728,8.64 1.152,5.952 1.92,12.096 0.96,6.144 0.96,9.792 h 0.768 q 0.384,-3.264 1.344,-9.408 0.96,-6.336 2.112,-13.248 1.344,-6.912 2.688,-11.712 l 12.48,-46.464 h 28.032 l -30.144,104.832 h -31.104 z"
         style="font-weight:bold;-inkscape-font-specification:'sans-serif Bold'"
         id="path12282" /><path
         style="font-weight:bold;-inkscape-font-specification:'sans-serif Bold'"
         d="m 520.38277,648.01443 v 104.832 h -28.608 v -104.832 z"
         id="path12291" /><path
         d="m 574.50883,646.09443 q 19.392,0 30.336,15.36 h 0.768 l 2.304,-13.44 h 24.192 v 105.024 q 0,22.464 -13.248,34.176 -13.248,11.712 -39.168,11.712 -11.136,0 -20.736,-1.344 -9.408,-1.344 -18.432,-4.8 v -22.848 q 19.392,8.064 40.896,8.064 22.08,0 22.08,-23.808 v -2.112 q 0,-3.264 0.192,-6.72 0.384,-3.456 0.576,-6.144 h -0.768 q -5.376,8.256 -12.864,11.904 -7.488,3.648 -16.896,3.648 -18.624,0 -29.184,-14.208 -10.368,-14.4 -10.368,-39.936 0,-25.728 10.752,-40.128 10.752,-14.4 29.568,-14.4 z m 9.024,23.232 q -20.16,0 -20.16,31.68 0,31.296 20.544,31.296 10.944,0 16.128,-6.144 5.376,-6.336 5.376,-21.888 v -3.456 q 0,-16.896 -5.184,-24.192 -5.184,-7.296 -16.704,-7.296 z"
         style="font-weight:bold;-inkscape-font-specification:'sans-serif Bold'"
         id="path12286" /></g><path
       style="opacity:1;fill:url(#linearGradient13222);fill-opacity:1;stroke-width:0.0870765"
       d="m 133.65419,170.49982 c -0.15838,-0.19084 -0.18326,-0.46987 -0.27725,-3.10889 -0.11111,-3.11991 -0.2579,-3.80161 -1.04252,-4.84129 -0.47321,-0.62703 -1.14587,-1.03674 -2.49505,-1.5197 -1.30906,-0.4686 -2.94126,-1.22664 -3.57492,-1.66028 -1.01496,-0.6946 -2.16755,-2.01411 -2.72089,-3.11495 -0.58267,-1.15918 -1.03833,-2.65174 -1.16741,-3.82396 l -0.0413,-0.37487 1.05904,0.0533 c 2.17772,0.10949 3.65392,0.44369 5.03944,1.14091 1.87613,0.94409 3.10942,2.23016 3.9245,4.09241 0.61914,1.4146 0.80798,2.30335 0.94079,4.42779 0.093,1.48808 0.15757,1.78933 0.3834,1.78933 0.17226,0 0.25367,-0.33886 0.70075,-2.91706 0.59024,-3.40372 0.90264,-4.40909 1.76388,-5.67661 1.33257,-1.9612 3.71402,-3.40236 6.58925,-3.98757 0.54619,-0.11117 2.89184,-0.2884 4.01809,-0.3036 l 0.18363,-0.002 -0.1998,1.04379 c -0.52577,2.74659 -1.23682,4.44279 -2.51983,6.01101 -0.98919,1.20908 -2.65889,2.33508 -4.47881,3.02037 -0.66122,0.24898 -2.84874,0.89647 -3.0287,0.89647 -0.0951,0 -0.0779,-0.0772 0.0728,-0.32653 0.57832,-0.95688 1.21879,-1.84678 2.08618,-2.89865 1.90655,-2.31206 1.93006,-2.34771 1.54818,-2.34771 -0.28956,0 -1.05476,0.62047 -2.25646,1.82965 -1.50105,1.5104 -3.30257,3.97733 -3.30257,4.52239 0,0.28292 0.10436,0.17522 0.86882,-0.89658 0.80737,-1.13197 2.00363,-2.61203 2.0631,-2.55256 0.0223,0.0223 -0.21231,0.40689 -0.52141,0.8546 -1.06229,1.53866 -2.00814,3.34474 -2.40466,4.59163 -0.32273,1.01484 -0.39966,1.55789 -0.53186,3.75449 -0.13047,2.16764 -0.16656,2.38713 -0.39801,2.42058 -0.0988,0.0143 -0.225,-0.0286 -0.28039,-0.0954 z"
       id="path12364" /></g></svg>
