<svg xmlns="http://www.w3.org/2000/svg" viewBox="0 0 1000 500">
  <!-- Simplified Robinson projection world map -->
  <g id="countries">
    <!-- North America -->
    <path id="USA" d="M120,120 L150,110 L180,108 L210,115 L235,125 L250,140 L265,155 L270,175 L265,195 L250,210 L230,220 L210,225 L185,228 L160,225 L140,215 L125,200 L115,180 L112,160 L115,140 Z"/>
    <path id="CAN" d="M110,70 L140,60 L175,58 L210,62 L245,70 L270,85 L280,100 L278,115 L270,125 L255,130 L235,128 L210,120 L185,115 L160,112 L135,108 L115,100 L105,85 Z"/>
    <path id="MEX" d="M120,220 L145,212 L170,215 L188,225 L195,240 L192,255 L180,265 L162,268 L145,262 L132,250 L125,235 Z"/>

    <!-- South America -->
    <path id="BRA" d="M260,275 L280,268 L300,270 L315,280 L325,300 L330,325 L328,350 L320,375 L305,395 L285,405 L265,402 L250,390 L245,370 L245,345 L248,320 L253,295 Z"/>
    <path id="ARG" d="M245,390 L258,385 L270,388 L278,405 L280,430 L275,455 L265,470 L250,475 L238,468 L235,450 L237,425 L240,405 Z"/>

    <!-- Europe -->
    <path id="GBR" d="M475,100 L485,95 L495,98 L500,108 L498,118 L490,122 L480,120 L473,110 Z"/>
    <path id="FRA" d="M485,125 L500,120 L512,125 L518,135 L515,145 L505,150 L492,148 L483,140 L482,130 Z"/>
    <path id="DEU" d="M505,105 L518,100 L528,105 L532,115 L528,125 L518,130 L508,128 L502,118 L503,110 Z"/>
    <path id="ESP" d="M470,135 L485,130 L500,133 L508,143 L505,153 L492,158 L478,155 L468,145 Z"/>
    <path id="ITA" d="M515,130 L525,125 L533,130 L538,142 L535,155 L525,160 L515,157 L510,145 L512,135 Z"/>
    <path id="POL" d="M530,100 L543,95 L553,100 L558,110 L554,120 L543,125 L532,122 L528,112 Z"/>
    <path id="UKR" d="M555,105 L570,100 L583,105 L590,115 L587,128 L575,135 L562,132 L553,122 L552,112 Z"/>

    <!-- Russia/Asia -->
    <path id="RUS" d="M550,70 L600,65 L650,68 L700,75 L750,85 L800,98 L840,115 L860,130 L865,145 L855,160 L835,170 L805,175 L770,173 L730,165 L685,155 L640,145 L595,135 L560,125 L540,110 L535,90 Z"/>

    <!-- Middle East -->
    <path id="SAU" d="M580,165 L598,160 L615,165 L625,180 L622,195 L608,202 L592,200 L578,188 L575,175 Z"/>
    <path id="IRN" d="M605,155 L622,150 L638,155 L648,168 L645,182 L632,190 L618,188 L608,175 L607,162 Z"/>

    <!-- Africa -->
    <path id="EGY" d="M520,175 L535,170 L548,175 L555,188 L552,200 L540,205 L527,202 L518,190 Z"/>
    <path id="ZAF" d="M525,320 L540,315 L555,318 L565,330 L568,345 L562,360 L548,368 L535,365 L525,352 L522,335 Z"/>
    <path id="NGA" d="M495,205 L510,200 L523,205 L530,218 L527,230 L515,235 L502,232 L493,220 Z"/>
    <path id="ETH" d="M555,210 L568,205 L580,210 L588,223 L585,235 L573,242 L560,239 L553,227 L552,215 Z"/>

    <!-- Asia -->
    <path id="CHN" d="M700,120 L740,115 L775,120 L800,132 L815,150 L812,170 L795,185 L770,190 L740,185 L710,175 L690,160 L685,140 L690,128 Z"/>
    <path id="IND" d="M650,175 L670,170 L688,175 L700,190 L705,210 L700,230 L685,240 L668,242 L652,235 L643,220 L642,200 L645,185 Z"/>
    <path id="JPN" d="M810,145 L825,140 L838,145 L845,158 L842,172 L830,180 L818,178 L810,168 L808,155 Z"/>
    <path id="THA" d="M710,210 L722,205 L733,210 L740,223 L737,235 L727,242 L716,240 L708,228 L707,218 Z"/>
    <path id="IDN" d="M720,245 L745,240 L768,245 L780,258 L778,272 L765,280 L745,282 L728,275 L718,262 L717,250 Z"/>

    <!-- Oceania -->
    <path id="AUS" d="M780,300 L820,295 L855,302 L880,318 L890,340 L885,365 L865,385 L835,395 L800,393 L770,380 L755,360 L752,335 L760,315 Z"/>
    <path id="NZL" d="M895,385 L908,380 L918,388 L920,402 L912,415 L900,418 L890,410 L888,398 Z"/>
  </g>
</svg>
